<?xml version="1.0" encoding="UTF-8"?>
<svg width="25px" height="40px" viewBox="0 0 25 40" version="1.1" xmlns="http://www.w3.org/2000/svg" xmlns:xlink="http://www.w3.org/1999/xlink">
    <!-- Generator: Sketch 54.1 (76490) - https://sketchapp.com -->
    <title>Icon</title>
    <desc>Created with Sketch.</desc>
    <g id="Symbols" stroke="none" stroke-width="1" fill="none" fill-rule="evenodd">
        <g id="UI/logo/segurosFalabella/normal" fill="#3FAE2A" fill-rule="nonzero">
            <g id="logo">
                <path d="M20.7228916,10.6626506 C22.535036,12.4657832 23.7251834,14.799654 24.1204819,17.3253012 L24.1204819,17.8313253 C20.5662651,16.9879518 16.313253,16.5783133 12.060241,16.5783133 C7.80722892,16.5903614 3.55421687,16.9879518 2.6538344e-14,17.8313253 L2.6538344e-14,17.3012048 C0.756702628,12.7818631 3.97424735,9.06365503 8.33805425,7.66571457 C12.7018611,6.26777411 17.4810059,7.42425204 20.7228916,10.6626506 Z M21.9879518,5.82131419e-15 C22.5601012,-0.000576215318 23.1089824,0.226454097 23.5135533,0.631024996 C23.9181242,1.0355959 24.1451545,1.58447714 24.1445783,2.15662651 L24.1445794,11.3614458 C21.4732739,7.30244438 16.9407099,4.85788066 12.0815584,4.85545473 C7.22240683,4.85302879 2.68740418,7.29306552 0.0120481928,11.3493976 L0.0120481928,2.15662651 C0.0114719775,1.58447714 0.238502289,1.0355959 0.643073189,0.631024996 C1.04764409,0.226454097 1.59652534,-0.000576215318 2.1686747,5.82131419e-15 L21.9879518,5.82131419e-15 Z M13.1686747,18.8192771 C17.1325301,18.8915663 21.0240964,19.3253012 24.1325301,20.1204819 L24.1325301,37.2168675 C24.1331063,37.7890168 23.906076,38.3378981 23.5015051,38.742469 C23.0969342,39.1470399 22.548053,39.3740702 21.9759036,39.373494 L2.15662651,39.373494 C1.58447714,39.3740702 1.0355959,39.1470399 0.631024996,38.742469 C0.226454097,38.3378981 -0.000576215318,37.7890168 3.82820818e-15,37.2168675 L3.82820818e-15,20.1204819 C3.12048193,19.3253012 7.02409639,18.8915663 10.9759036,18.8192771 L10.9759036,30.9759036 C10.9759036,33.2948342 12.8557682,35.1746988 15.1746988,35.1746988 C17.4936293,35.1746988 19.373494,33.2948342 19.373494,30.9759036 C19.373494,30.3737136 18.8853225,29.8855422 18.2831325,29.8855422 C17.6809425,29.8855422 17.1927711,30.3737136 17.1927711,30.9759036 C17.1927711,32.0871271 16.2919464,32.9879518 15.1807229,32.9879518 C14.0694994,32.9879518 13.1686747,32.0871271 13.1686747,30.9759036 L13.1686747,18.8192771 Z" id="Icon"></path>
            </g>
        </g>
    </g>
</svg>