<svg xmlns="http://www.w3.org/2000/svg" enable-background="new 0 0 24 24" viewBox="0 0 24 24"><path d="M23.5,13.246h-6.954c-0.229,0-0.43-0.158-0.485-0.38c-0.034-0.134-0.852-3.278-4.025-3.278c-0.011,0-0.021,0-0.032,0c-3.207,0.021-4.031,3.146-4.064,3.28c-0.056,0.222-0.256,0.379-0.485,0.379H0.5c-0.137,0-0.268-0.056-0.363-0.156C0.043,12.991-0.006,12.857,0,12.72C0.364,5.7,6.477,1.991,12.004,2c5.409,0.041,11.452,3.807,11.995,10.706c0.011,0.139-0.037,0.276-0.131,0.378S23.64,13.246,23.5,13.246z M16.91,12.246h6.036C22.186,6.284,16.817,3.037,11.996,3l0,0C7.036,2.967,1.64,6.187,1.039,12.246h6.053c0.371-1.002,1.655-3.637,4.905-3.659c0.013,0,0.027,0,0.04,0C15.266,8.587,16.542,11.238,16.91,12.246z"/><path d="M12,16.905c-1.898,0-3.442-1.514-3.442-3.375c0-1.861,1.544-3.375,3.442-3.375s3.442,1.514,3.442,3.375C15.442,15.391,13.898,16.905,12,16.905z M12,11.154c-1.347,0-2.442,1.065-2.442,2.375c0,1.31,1.096,2.375,2.442,2.375s2.442-1.065,2.442-2.375C14.442,12.22,13.347,11.154,12,11.154z"/><path d="M12.028,22c-4.07,0-7.816-3.022-9.327-7.528c-0.051-0.153-0.026-0.321,0.068-0.451c0.094-0.13,0.245-0.208,0.406-0.208h4.279c0.228,0,0.427,0.155,0.484,0.376c0.034,0.133,0.876,3.242,4.054,3.242c0.011,0,0.022,0,0.033,0c3.206-0.021,4.005-3.105,4.037-3.237c0.055-0.223,0.256-0.381,0.486-0.381h4.279c0.15,0,0.292,0.067,0.388,0.184c0.095,0.117,0.132,0.27,0.102,0.417c-1.072,5.199-5.554,7.577-9.266,7.586C12.043,22,12.035,22,12.028,22z M3.892,14.813C5.391,18.543,8.587,21,12.027,21c0.006,0,0.013,0,0.019,0c3.174-0.008,6.979-1.952,8.146-6.187H16.91c-0.366,0.997-1.633,3.597-4.879,3.618c-0.013,0-0.027,0-0.04,0c-3.228,0-4.522-2.622-4.897-3.618H3.892z"/></svg>